<?xml version="1.0" standalone="no"?>
<!DOCTYPE svg PUBLIC "-//W3C//DTD SVG 20010904//EN"
 "http://www.w3.org/TR/2001/REC-SVG-20010904/DTD/svg10.dtd">
<svg version="1.0" xmlns="http://www.w3.org/2000/svg"
 width="900.000000pt" height="900.000000pt" viewBox="0 0 900.000000 900.000000"
 preserveAspectRatio="xMidYMid meet">
<metadata>
Created by potrace 1.14, written by Peter Selinger 2001-2017
</metadata>
<g transform="translate(0.000000,900.000000) scale(0.100000,-0.100000)"
fill="#000000" stroke="none">
<path d="M1779 5317 c-1 -1 -3 -11 -5 -22 -1 -11 -5 -35 -8 -53 -2 -18 -7 -45
-10 -60 -3 -15 -8 -47 -11 -72 -3 -25 -8 -52 -10 -60 -2 -8 -7 -35 -10 -60
-11 -71 -15 -98 -20 -127 -2 -16 -7 -46 -10 -67 -3 -22 -7 -51 -10 -65 -2 -14
-6 -40 -9 -57 -3 -17 -8 -46 -10 -65 -10 -71 -17 -115 -22 -139 -3 -14 -8 -41
-10 -60 -2 -19 -20 -136 -40 -260 -20 -124 -38 -241 -40 -260 -3 -19 -7 -42
-9 -50 -4 -13 -94 -15 -732 -15 -401 0 -742 -2 -759 -3 -24 -3 -33 -11 -42
-36 -7 -18 -12 -49 -12 -69 l0 -37 934 0 934 0 6 28 c5 25 30 198 40 282 6 47
26 189 31 220 2 14 7 45 10 70 3 25 7 52 10 60 2 8 7 42 10 76 7 70 14 117 21
123 2 2 4 -2 5 -10 0 -8 2 -21 4 -29 5 -25 45 -203 52 -230 3 -14 8 -34 10
-45 2 -11 8 -38 14 -60 6 -22 13 -51 16 -65 2 -14 15 -70 27 -125 13 -55 27
-118 32 -140 4 -22 8 -42 9 -45 0 -3 7 -28 14 -56 l13 -52 150 0 c171 1 157
-7 179 103 7 33 13 62 14 65 1 4 17 76 20 90 1 3 4 19 8 35 4 17 9 39 11 50 4
20 28 121 47 200 5 22 12 50 14 63 2 13 7 32 10 42 3 10 8 29 10 42 13 67 38
169 40 166 3 -3 16 -92 41 -283 3 -22 7 -51 9 -65 2 -14 7 -45 10 -70 3 -25 7
-52 10 -60 2 -8 6 -40 10 -70 6 -62 11 -101 19 -145 3 -16 8 -50 11 -75 3 -25
7 -54 9 -65 3 -20 11 -20 1620 -21 l1617 -1 -5 21 c-2 12 -8 42 -11 69 -4 26
-10 48 -14 48 -3 1 -650 2 -1438 3 -787 1 -1434 4 -1437 7 -5 5 -17 78 -22
134 -1 17 -3 30 -4 30 -3 0 -9 38 -24 145 -5 31 -14 87 -21 130 -1 8 -6 38
-10 65 -5 28 -9 57 -10 65 -2 8 -6 35 -9 60 -4 25 -13 83 -21 130 -7 47 -16
103 -19 125 -4 22 -8 51 -11 65 -2 14 -7 43 -10 65 -5 35 -14 93 -31 200 -2
17 -6 41 -9 55 -2 14 -7 42 -10 63 -3 20 -8 54 -11 75 -4 20 -8 46 -9 57 -2
19 -10 20 -178 22 -97 1 -179 -2 -182 -7 -3 -4 -7 -25 -11 -46 -3 -22 -8 -42
-11 -47 -2 -4 -6 -20 -9 -35 -2 -15 -8 -43 -13 -62 -5 -19 -15 -55 -21 -80 -7
-24 -14 -56 -17 -70 -2 -14 -11 -50 -19 -80 -8 -30 -16 -64 -18 -75 -2 -11
-18 -78 -35 -149 -17 -70 -33 -138 -35 -150 -13 -57 -16 -69 -21 -74 -3 -3 -5
-1 -6 4 -1 14 -14 65 -28 112 -5 17 -8 32 -6 32 3 0 0 11 -5 26 -6 14 -12 37
-15 52 -7 39 -12 60 -30 132 -9 36 -18 76 -21 90 -3 14 -19 79 -35 145 -17 66
-32 131 -34 145 -2 14 -6 32 -9 40 -3 8 -10 34 -16 56 l-10 41 -175 1 c-96 0
-176 -1 -176 -1z"/>
<path d="M3066 5313 c-2 -3 -3 -19 0 -36 2 -18 6 -45 8 -62 3 -16 5 -33 5 -36
1 -3 664 -5 1473 -5 l1473 1 11 65 c7 36 10 68 8 72 -5 7 -2970 9 -2978 1z"/>
<path d="M3172 4985 c-3 -5 -6 -234 -7 -507 l0 -498 30 -1 c56 -1 210 -1 230
0 20 1 20 7 18 502 -1 276 -4 503 -6 506 -10 10 -259 8 -265 -2z"/>
<path d="M3563 4992 l-53 -3 0 -505 c0 -396 3 -504 13 -505 6 0 125 -1 262 -1
l250 -1 1 101 1 102 -126 0 -126 0 1 405 c0 403 0 405 -20 406 -12 0 -50 1
-86 2 -36 1 -89 1 -117 -1z"/>
<path d="M4077 4988 c-9 -5 -12 -67 -12 -205 l0 -198 -27 2 c-29 2 -43 -13
-88 -92 -13 -22 -34 -59 -48 -82 l-24 -43 94 0 94 0 -1 -195 0 -195 30 -1 c45
-1 446 -1 475 0 24 1 25 3 23 63 -1 35 -2 80 -2 101 l-1 37 -125 0 -125 0 0
95 0 95 104 0 104 0 0 105 c0 70 -4 105 -12 106 -6 1 -51 2 -101 3 l-90 1 0
100 0 100 122 0 122 -1 3 100 c2 82 0 100 -12 103 -29 7 -492 8 -503 1z"/>
<path d="M5049 4996 c-2 -2 -44 -6 -94 -9 -196 -10 -306 -111 -309 -282 -2
-110 49 -194 149 -247 39 -20 133 -56 169 -63 127 -27 189 -92 152 -162 -21
-41 -36 -51 -80 -56 -83 -9 -132 23 -159 103 l-15 45 -117 0 c-64 0 -122 -3
-128 -7 -14 -9 8 -109 38 -168 61 -120 173 -175 353 -172 178 2 287 64 347
194 36 78 38 191 6 263 -48 107 -127 156 -348 216 -86 23 -123 47 -123 79 0
62 62 92 140 66 32 -11 48 -28 66 -71 l15 -36 124 3 123 3 -4 38 c-7 56 -47
137 -85 174 -39 37 -106 69 -163 77 -21 4 -42 8 -46 11 -4 2 -9 3 -11 1z"/>
<path d="M5455 4992 l-60 -3 1 -95 c1 -52 5 -98 8 -102 4 -4 33 -7 64 -7 l57
0 3 -403 c2 -374 3 -402 20 -403 29 -1 226 -1 243 0 13 1 15 46 15 401 -1 220
1 400 4 401 3 0 32 2 65 2 l60 2 3 103 2 102 -97 1 c-54 0 -150 1 -213 2 -63
1 -142 1 -175 -1z"/>
<path d="M6895 4990 l-41 -5 1 -504 0 -504 110 1 c61 0 113 1 117 1 4 1 9 109
10 240 l3 240 105 -236 c58 -129 109 -237 114 -240 4 -3 72 -6 150 -6 l141 0
3 196 2 197 35 0 c26 0 35 -4 36 -17 0 -10 1 -98 1 -195 0 -158 2 -178 17
-179 22 -1 471 -1 494 0 16 1 17 12 16 101 l-1 100 -124 0 c-68 0 -124 3 -125
8 -1 13 -1 136 0 159 1 21 6 22 103 25 l103 3 1 95 c0 52 -1 100 -3 105 -2 6
-42 10 -99 10 -52 -1 -98 3 -101 8 -7 12 -7 172 0 184 3 5 60 8 126 8 l120 -1
0 103 1 103 -75 1 c-41 0 -104 0 -140 0 -36 0 -121 0 -189 0 l-124 -1 0 -192
c0 -106 -1 -197 -1 -203 -1 -5 -17 -11 -36 -12 l-35 -3 0 205 c0 175 -2 205
-15 206 -8 0 -44 0 -80 0 -36 0 -82 0 -103 0 l-38 -1 1 -250 c0 -138 -1 -250
-3 -250 -1 0 -11 19 -21 43 -10 23 -27 62 -39 87 -52 115 -80 179 -98 220 -10
24 -30 68 -44 98 l-25 53 -105 2 c-58 1 -123 0 -145 -3z"/>
<path d="M8545 4988 c-214 -25 -325 -181 -270 -375 28 -95 108 -155 276 -208
154 -48 173 -59 188 -113 11 -36 -10 -84 -43 -102 -35 -18 -97 -19 -134 -2
-32 16 -88 105 -76 123 10 17 -70 21 -238 10 -27 -2 -23 -55 9 -141 4 -8 6
-17 6 -20 -1 -3 18 -29 40 -59 67 -87 163 -124 322 -123 171 0 283 62 346 189
32 65 34 216 4 278 -42 88 -129 144 -295 190 -52 14 -110 33 -128 41 -86 37
-44 134 56 129 51 -3 96 -40 106 -87 l6 -30 127 4 c74 2 127 8 126 13 0 6 -4
27 -7 48 -21 131 -125 220 -275 233 -36 4 -68 7 -71 8 -3 1 -36 -1 -75 -6z"/>
<path d="M6231 4968 c-92 -34 -149 -78 -200 -153 -81 -117 -107 -314 -67 -515
7 -33 47 -121 63 -138 7 -7 13 -17 13 -20 0 -14 56 -69 96 -95 60 -40 121 -58
221 -64 203 -12 343 64 421 230 17 34 33 85 38 112 9 59 10 267 1 310 -3 17
-8 40 -11 53 -19 88 -113 210 -195 251 -103 53 -280 66 -380 29z m239 -234
c78 -45 112 -187 84 -351 -22 -126 -81 -181 -183 -171 -68 7 -98 29 -129 96
-24 51 -27 69 -26 167 0 138 9 177 56 236 39 48 136 60 198 23z"/>
<path d="M310 4409 c0 -48 1 -49 30 -49 l30 0 0 -190 0 -190 23 -1 c12 0 41
-1 65 -2 31 -2 42 1 43 13 0 8 1 95 1 193 1 127 4 177 12 174 6 -2 20 -1 32 3
16 7 20 16 20 52 l-1 43 -128 1 -127 1 0 -48z"/>
<path d="M580 4219 c0 -152 4 -239 10 -240 6 0 26 -1 45 -1 77 0 71 -10 71
112 -1 83 2 107 10 95 8 -10 29 -15 68 -15 l57 0 -2 -91 c-1 -53 3 -94 9 -98
8 -5 84 -6 112 -2 3 1 5 41 5 91 -1 49 1 87 4 84 3 -3 6 -41 7 -85 0 -43 4
-82 7 -85 5 -6 146 -8 222 -5 17 1 20 8 21 46 1 49 8 45 -86 49 -32 1 -35 4
-35 31 -1 51 10 63 55 59 22 -2 40 0 41 4 5 46 2 92 -6 95 -5 2 -27 3 -47 1
-25 -2 -38 1 -39 9 -2 14 -2 69 0 80 1 5 16 8 34 7 82 -5 82 -5 82 49 l0 48
-192 0 -193 0 0 -83 0 -84 -68 0 -67 0 1 73 c0 39 -1 77 -4 84 -2 7 -26 11
-63 11 l-59 -1 0 -238z m396 131 c0 -49 -2 -87 -5 -84 -7 7 -9 174 -2 174 4 0
7 -40 7 -90z"/>
</g>
</svg>
